HIERARCHY
ROOT Hips
{
	OFFSET 0.000000 0.000000 0.000000
	CHANNELS 6 Xposition Yposition Zposition Zrotation Yrotation Xrotation 
	JOINT LHipJoint
	{
		OFFSET 0.000000 0.000000 0.000000
		CHANNELS 3 Zrotation Yrotation Xrotation
		JOINT LeftUpLeg
		{
			OFFSET 1.363060 -1.794630 0.839290
			CHANNELS 3 Zrotation Yrotation Xrotation
			JOINT LeftLeg
			{
				OFFSET 2.448110 -6.726130 0.000000
				CHANNELS 3 Zrotation Yrotation Xrotation
				JOINT LeftFoot
				{
					OFFSET 2.562200 -7.039590 0.000000
					CHANNELS 3 Zrotation Yrotation Xrotation
					JOINT LeftToeBase
					{
						OFFSET 0.157640 -0.433110 2.322550
						CHANNELS 3 Zrotation Yrotation Xrotation
						End Site
						{
							OFFSET 0.000000 0.000000 0.000000
						}
					}
				}
			}
		}
	}
	JOINT RHipJoint
	{
		OFFSET 0.000000 0.000000 0.000000
		CHANNELS 3 Zrotation Yrotation Xrotation
		JOINT RightUpLeg
		{
			OFFSET -1.305520 -1.794630 0.839290
			CHANNELS 3 Zrotation Yrotation Xrotation
			JOINT RightLeg
			{
				OFFSET -2.542530 -6.985550 0.000000
				CHANNELS 3 Zrotation Yrotation Xrotation
				JOINT RightFoot
				{
					OFFSET -2.568260 -7.056230 0.000000
					CHANNELS 3 Zrotation Yrotation Xrotation
					JOINT RightToeBase
					{
						OFFSET -0.164730 -0.452590 2.363150
						CHANNELS 3 Zrotation Yrotation Xrotation
						End Site
						{
							OFFSET 0.000000 0.000000 0.000000
						}
					}
				}
			}
		}
	}
	JOINT LowerBack
	{
		OFFSET 0.000000 0.000000 0.000000
		CHANNELS 3 Zrotation Yrotation Xrotation
		JOINT Spine
		{
			OFFSET 0.028270 2.035590 -0.193380
			CHANNELS 3 Zrotation Yrotation Xrotation
			JOINT Spine1
			{
				OFFSET 0.056720 2.048850 -0.042750
				CHANNELS 3 Zrotation Yrotation Xrotation
				JOINT Neck
				{
					OFFSET 0.000000 0.000000 0.000000
					CHANNELS 3 Zrotation Yrotation Xrotation
					JOINT Neck1
					{
						OFFSET -0.054170 1.746240 0.172020
						CHANNELS 3 Zrotation Yrotation Xrotation
						JOINT Head
						{
							OFFSET 0.104070 1.761360 -0.123970
							CHANNELS 3 Zrotation Yrotation Xrotation
							End Site
							{
								OFFSET 0.000000 0.000000 0.000000
							}
						}
					}
				}
				JOINT LeftShoulder
				{
					OFFSET 0.000000 0.000000 0.000000
					CHANNELS 3 Zrotation Yrotation Xrotation
					JOINT LeftArm
					{
						OFFSET 3.362410 1.200890 -0.311210
						CHANNELS 3 Zrotation Yrotation Xrotation
						JOINT LeftForeArm
						{
							OFFSET 4.983000 -0.000000 -0.000000
							CHANNELS 3 Zrotation Yrotation Xrotation
							JOINT LeftHand
							{
								OFFSET 3.483560 -0.000000 -0.000000
								CHANNELS 3 Zrotation Yrotation Xrotation
								JOINT LeftFingerBase
								{
									OFFSET 0.000000 0.000000 0.000000
									CHANNELS 3 Zrotation Yrotation Xrotation
									JOINT LeftHandIndex1
									{
										OFFSET 0.715260 -0.000000 -0.000000
										CHANNELS 3 Zrotation Yrotation Xrotation
										End Site
										{
											OFFSET 0.000000 0.000000 0.000000
										}
									}
								}
								JOINT LThumb
								{
									OFFSET 0.000000 0.000000 0.000000
									CHANNELS 3 Zrotation Yrotation Xrotation
									End Site
									{
										OFFSET 0.000000 0.000000 0.000000
									}
								}
							}
						}
					}
				}
				JOINT RightShoulder
				{
					OFFSET 0.000000 0.000000 0.000000
					CHANNELS 3 Zrotation Yrotation Xrotation
					JOINT RightArm
					{
						OFFSET -3.136600 1.374050 -0.404650
						CHANNELS 3 Zrotation Yrotation Xrotation
						JOINT RightForeArm
						{
							OFFSET -5.241900 -0.000000 -0.000000
							CHANNELS 3 Zrotation Yrotation Xrotation
							JOINT RightHand
							{
								OFFSET -3.444170 -0.000000 -0.000000
								CHANNELS 3 Zrotation Yrotation Xrotation
								JOINT RightFingerBase
								{
									OFFSET 0.000000 0.000000 0.000000
									CHANNELS 3 Zrotation Yrotation Xrotation
									JOINT RightHandIndex1
									{
										OFFSET -0.622530 -0.000000 -0.000000
										CHANNELS 3 Zrotation Yrotation Xrotation
										End Site
										{
											OFFSET 0.000000 0.000000 0.000000
										}
									}
								}
								JOINT RThumb
								{
									OFFSET 0.000000 0.000000 0.000000
									CHANNELS 3 Zrotation Yrotation Xrotation
									End Site
									{
										OFFSET 0.000000 0.000000 0.000000
									}
								}
							}
						}
					}
				}
			}
		}
	}
}
MOTION
Frames: 12
Frame Time: 0.008333
2.533097 16.898406 0.924625 -45.363205 -59.432687 24.098805 -12.755575 -0.737036 -2.158068 10.917749 1.692195 11.234841 0.612047 1.828544 24.372425 2.157451 11.554214 -14.309088 -1.357400 0.000000 -41.396600 6.992037 4.476942 -2.628871 12.704977 -32.080396 -59.584180 3.062489 -0.509406 8.604392 -1.632909 -10.466703 5.844602 -2.716900 -0.000000 -65.147800 -3.704000 -5.835506 7.340038 -1.458291 -5.742282 -0.855675 -5.502482 -5.577123 0.313900 8.691505 -20.746061 -6.207458 -0.534423 -0.049454 0.211595 0.000000 0.000000 0.000000 9.644171 8.714504 -0.804848 -50.761228 26.635700 1.352279 -2.088295 -48.777913 0.001848 -2.333440 1.897807 -0.036058 -0.052013 0.070940 0.000000 0.000000 0.000000 0.000000 0.000000 0.000000 0.000000 6.520182 -18.853407 -0.398706 68.332984 -17.226805 -0.013678 3.523567 21.903456 0.007850 6.727931 5.299604 0.310044 0.061102 -0.014767 -0.000000 0.000000 0.000000 0.000000 0.000000 0.000000 0.000000 
2.527339 16.896393 0.936322 -45.215670 -59.527928 23.476492 -12.757421 -0.599218 -2.075113 10.903606 1.930275 11.793109 0.592929 1.822688 23.980416 2.109444 11.280896 -14.183070 -1.307500 0.000000 -41.699601 7.117539 4.271312 -2.933436 13.020639 -32.809589 -57.906302 3.033901 -0.611878 9.705155 -1.751731 -11.408013 5.492594 -2.842100 -0.000001 -65.923601 -3.773216 -5.772843 7.413053 -1.476779 -5.676388 -0.842378 -5.477773 -5.512127 0.303393 8.661402 -20.617691 -6.151557 -0.547209 -0.051331 0.225183 0.000000 0.000000 0.000000 9.399310 8.965911 -0.819107 -51.507196 26.669123 0.817092 -2.160432 -47.781191 0.001486 -2.223578 1.881483 -0.033944 -0.056357 0.067717 0.000000 0.000000 0.000000 0.000000 0.000000 0.000000 0.000000 6.528345 -18.743705 -0.424486 68.148912 -16.976949 -1.415827 3.570893 21.032644 0.008668 6.576234 5.418882 0.309854 0.064653 -0.018069 -0.000000 0.000000 0.000000 0.000000 0.000000 0.000000 0.000000 
2.521547 16.895753 0.947198 -45.002626 -59.606950 22.827372 -12.754164 -0.462708 -1.986166 10.826294 2.069741 12.340206 0.574754 1.818712 23.585005 2.075747 11.090439 -14.053244 -1.264599 0.000000 -41.940999 7.249349 4.075517 -3.225092 13.231647 -33.571652 -56.172421 2.976642 -0.694119 10.725897 -1.944176 -12.838865 4.971517 -3.045700 0.000000 -66.582200 -3.850836 -5.716946 7.477565 -1.495581 -5.617102 -0.831115 -5.451608 -5.453587 0.293666 8.630005 -20.492341 -6.104037 -0.555570 -0.052724 0.236620 0.000000 0.000000 0.000000 9.156876 9.225271 -0.831646 -52.224124 26.719344 0.306105 -2.227956 -46.868832 0.001184 -2.119416 1.855804 -0.031830 -0.060301 0.064938 0.000000 0.000000 0.000000 0.000000 0.000000 0.000000 0.000000 6.517139 -18.636226 -0.446708 67.996662 -16.722593 -2.821600 3.613847 20.190870 0.009487 6.410237 5.532842 0.308263 0.068206 -0.021492 -0.000000 0.000000 0.000000 0.000000 0.000000 0.000000 0.000000 
2.515255 16.895774 0.956983 -44.724357 -59.662457 22.141527 -12.746625 -0.327328 -1.892953 10.699724 2.123625 12.874334 0.555766 1.817884 23.202987 2.052312 10.958134 -13.928544 -1.228100 0.000001 -42.140800 7.384910 3.888299 -3.514929 13.341945 -34.380888 -54.402897 2.899858 -0.768421 11.734556 -2.186244 -14.597375 4.370244 -3.287400 -0.000000 -66.817500 -3.936202 -5.667891 7.546749 -1.514651 -5.564632 -0.819589 -5.423138 -5.401554 0.282400 8.597609 -20.379011 -6.067632 -0.558791 -0.053529 0.245152 0.000000 0.000000 0.000000 8.925117 9.483837 -0.842441 -52.910719 26.795390 -0.164635 -2.289695 -46.052397 0.000927 -2.017782 1.824155 -0.029621 -0.063869 0.062589 0.000000 0.000000 0.000000 0.000000 0.000000 0.000000 0.000000 6.487348 -18.537620 -0.464811 67.863827 -16.485964 -4.126983 3.647355 19.441420 0.010234 6.223299 5.626733 0.304272 0.071612 -0.024788 -0.000000 0.000000 0.000000 0.000000 0.000000 0.000000 0.000000 
2.508030 16.895691 0.965376 -44.380293 -59.696344 21.412779 -12.734741 -0.192972 -1.797939 10.532956 2.115135 13.389097 0.533919 1.820479 22.849186 2.034879 10.858578 -13.817208 -1.197199 -0.000000 -42.317100 7.525296 3.708111 -3.807186 13.336406 -35.229803 -52.601530 2.811508 -0.842873 12.763819 -2.451029 -16.509991 3.786587 -3.538700 0.000000 -66.412000 -4.032640 -5.624662 7.625938 -1.534622 -5.517976 -0.806961 -5.391348 -5.354986 0.268390 8.562002 -20.281167 -6.042706 -0.555499 -0.053638 0.250687 0.000000 0.000000 0.000000 8.710875 9.735105 -0.851950 -53.565004 26.907126 -0.579346 -2.344721 -45.340680 0.000709 -1.917080 1.788512 -0.027512 -0.067071 0.060644 0.000000 0.000000 0.000000 0.000000 0.000000 0.000000 0.000000 6.431835 -18.449442 -0.477695 67.753110 -16.276569 -5.293094 3.671655 18.804085 0.010896 6.034043 5.705341 0.298980 0.074697 -0.027872 -0.000000 0.000000 0.000000 0.000000 0.000000 0.000000 0.000000 
2.499433 16.895010 0.972110 -43.965678 -59.718042 20.639466 -12.717409 -0.059877 -1.704046 10.331293 2.074395 13.872374 0.507117 1.825628 22.535071 2.019330 10.767511 -13.726700 -1.171700 0.000000 -42.482700 7.673775 3.533062 -4.099875 13.193882 -36.090413 -50.764712 2.718878 -0.921396 13.816870 -2.711180 -18.407411 3.304568 -3.785800 0.000000 -65.320899 -4.147029 -5.584572 7.713906 -1.556979 -5.474293 -0.793571 -5.355783 -5.311055 0.251256 8.523452 -20.204007 -6.029399 -0.545394 -0.053032 0.253258 0.000000 0.000000 0.000000 8.522403 9.975228 -0.860821 -54.187400 27.061106 -0.927440 -2.392620 -44.739401 0.000527 -1.817922 1.750023 -0.025405 -0.069916 0.059055 0.000000 0.000000 0.000000 0.000000 0.000000 0.000000 0.000000 6.351695 -18.374481 -0.485222 67.659708 -16.106854 -6.252915 3.685532 18.313175 0.011433 5.851440 5.762542 0.292688 0.077327 -0.030565 -0.000000 0.000000 0.000000 0.000000 0.000000 0.000000 0.000000 
2.489109 16.893390 0.977044 -43.478485 -59.742131 19.828881 -12.692935 0.071751 -1.613450 10.096513 2.034750 14.307791 0.473887 1.831544 22.268634 2.002381 10.666520 -13.661935 -1.151100 -0.000000 -42.645200 7.833839 3.360790 -4.385576 12.901597 -36.919813 -48.892217 2.628144 -1.004218 14.877997 -2.943260 -20.143178 2.976962 -4.024900 0.000000 -63.683599 -4.286516 -5.543944 7.802200 -1.583349 -5.429668 -0.781147 -5.316740 -5.265966 0.231272 8.483350 -20.149866 -6.026853 -0.529001 -0.051774 0.253219 0.000000 0.000000 0.000000 8.365906 10.203303 -0.869758 -54.778847 27.261081 -1.203283 -2.433589 -44.249244 0.000379 -1.723112 1.708228 -0.023398 -0.072408 0.057758 0.000000 0.000000 0.000000 0.000000 0.000000 0.000000 0.000000 6.251876 -18.312811 -0.487891 67.577314 -15.985859 -6.953997 3.688670 17.993817 0.011820 5.684492 5.794375 0.285792 0.079403 -0.032730 -0.000000 0.000000 0.000000 0.000000 0.000000 0.000000 0.000000 
2.477066 16.890633 0.980268 -42.922712 -59.785406 18.993804 -12.660040 0.201441 -1.527607 9.829227 2.026563 14.679199 0.433556 1.836150 22.053300 1.981797 10.543724 -13.625805 -1.135500 0.000000 -42.805700 8.007114 3.188987 -4.655159 12.464398 -37.673799 -46.993782 2.543763 -1.089454 15.927013 -3.130528 -21.603984 2.816945 -4.251701 0.000000 -61.771800 -4.454843 -5.498647 7.879795 -1.614663 -5.379739 -0.771867 -5.274944 -5.215535 0.209290 8.442823 -20.119392 -6.033719 -0.507288 -0.049970 0.251051 0.000000 0.000000 0.000000 8.242795 10.421421 -0.879357 -55.340917 27.506074 -1.407575 -2.468278 -43.866490 0.000269 -1.637440 1.662046 -0.021494 -0.074538 0.056675 0.000000 0.000000 0.000000 0.000000 0.000000 0.000000 0.000000 6.137958 -18.263321 -0.486452 67.500314 -15.912984 -7.375855 3.682160 17.851444 0.012059 5.543937 5.801985 0.278996 0.080861 -0.034323 -0.000000 0.000000 0.000000 0.000000 0.000000 0.000000 0.000000 
2.463257 16.886926 0.981877 -42.298415 -59.859216 18.147717 -12.617435 0.329572 -1.445601 9.530475 2.070719 14.967856 0.385937 1.837417 21.892547 1.956266 10.392444 -13.620339 -1.124800 0.000000 -42.961000 8.192153 3.015757 -4.899946 11.909733 -38.321543 -45.097690 2.468525 -1.174918 16.952617 -3.264934 -22.719279 2.799917 -4.455100 0.000000 -59.911801 -4.653051 -5.446554 7.934449 -1.651088 -5.322206 -0.767818 -5.230947 -5.157639 0.187790 8.403453 -20.113745 -6.048836 -0.481336 -0.047733 0.247219 0.000000 0.000000 0.000000 8.154465 10.635960 -0.889979 -55.877109 27.786616 -1.544622 -2.497981 -43.577732 0.000203 -1.566306 1.607740 -0.019789 -0.076304 0.055767 0.000000 0.000000 0.000000 0.000000 0.000000 0.000000 0.000000 6.016309 -18.227703 -0.482129 67.421926 -15.877460 -7.514758 3.667628 17.874142 0.012167 5.435772 5.791457 0.272998 0.081701 -0.035355 -0.000000 0.000000 0.000000 0.000000 0.000000 0.000000 0.000000 
2.448032 16.882456 0.982437 -41.626332 -59.984102 17.314089 -12.566156 0.455336 -1.369113 9.202063 2.185204 15.181143 0.332854 1.833788 21.770058 1.927185 10.222021 -13.638526 -1.118300 0.000000 -43.102500 8.385753 2.837793 -5.112660 11.275332 -38.830911 -43.226119 2.403247 -1.258440 17.950472 -3.345105 -23.456872 2.869805 -4.612900 0.000000 -58.328101 -4.873167 -5.382323 7.957514 -1.691419 -5.251521 -0.771029 -5.187156 -5.086993 0.166993 8.366261 -20.124551 -6.070050 -0.453481 -0.045286 0.242399 0.000000 0.000000 0.000000 8.088396 10.848620 -0.901159 -56.386888 28.102952 -1.631490 -2.524017 -43.379080 0.000181 -1.518501 1.548436 -0.018386 -0.077700 0.054862 0.000000 0.000000 0.000000 0.000000 0.000000 0.000000 0.000000 5.894036 -18.195716 -0.475477 67.336687 -15.871912 -7.425133 3.648396 18.040520 0.012186 5.373789 5.772141 0.269000 0.081917 -0.035976 -0.000000 0.000000 0.000000 0.000000 0.000000 0.000000 0.000000 
2.432035 16.877297 0.982417 -40.932798 -60.164186 16.511198 -12.509376 0.577884 -1.298950 8.854730 2.371418 15.329411 0.276336 1.825484 21.675585 1.895733 10.039399 -13.674742 -1.115000 -0.000000 -43.224300 8.582015 2.652382 -5.294623 10.611843 -39.210500 -41.406962 2.348895 -1.339927 18.931660 -3.373212 -23.813749 2.954179 -4.695000 -0.000000 -57.175100 -5.101993 -5.303996 7.950973 -1.733399 -5.165852 -0.781117 -5.145371 -5.001833 0.146955 8.334941 -20.150309 -6.096827 -0.426529 -0.042852 0.236706 0.000000 0.000000 0.000000 8.039917 11.063311 -0.912351 -56.876896 28.442187 -1.685167 -2.547764 -43.253627 0.000205 -1.499331 1.483477 -0.017282 -0.078730 0.053902 0.000000 0.000000 0.000000 0.000000 0.000000 0.000000 0.000000 5.786643 -18.165460 -0.468567 67.225852 -15.897220 -7.079941 3.621862 18.369989 0.012084 5.336288 5.729132 0.265102 0.081607 -0.036092 -0.000000 0.000000 0.000000 0.000000 0.000000 0.000000 0.000000 
2.415318 16.872020 0.981863 -40.213675 -60.393897 15.742533 -12.446132 0.698674 -1.230028 8.485031 2.617059 15.402616 0.217047 1.811802 21.608723 1.863337 9.853287 -13.727453 -1.115200 0.000000 -43.316600 8.774976 2.461011 -5.442936 9.957407 -39.471480 -39.682359 2.303217 -1.420001 19.921847 -3.361139 -23.849348 2.992247 -4.689700 0.000000 -56.563100 -5.338557 -5.215247 7.907378 -1.776436 -5.068816 -0.798606 -5.105055 -4.905838 0.131589 8.309553 -20.191302 -6.127450 -0.400100 -0.040434 0.230630 0.000000 0.000000 0.000000 8.008968 11.288564 -0.923796 -57.350407 28.787277 -1.713606 -2.570764 -43.173703 0.000281 -1.511396 1.408995 -0.016481 -0.079394 0.052919 0.000000 0.000000 0.000000 0.000000 0.000000 0.000000 0.000000 5.691388 -18.142823 -0.462248 67.094373 -15.917127 -6.563311 3.592661 18.784880 0.011954 5.330161 5.694819 0.263303 0.080869 -0.036011 -0.000000 0.000000 0.000000 0.000000 0.000000 0.000000 0.000000 
